# xmcd CD database file
#
# Track frame offsets:
#	150
#	16445
#	34185
#	55270
#
# Disc length: 956 seconds
#
# Revision: 1
# Processed by: cddbd v1.5.2PL0 Copyright (c) Steve Scherf et al.
# Submitted via: CDex 1.51
#
DISCID=2c03ba04
DTITLE=Guy Chadwick - You've Really Got a Hold On Me
DYEAR=1998
DGENRE=Britpop
TTITLE0=You've Really Got a Hold On Me
TTITLE1=Questionnaire
TTITLE2=Laughter and Honey
TTITLE3=Slaughterhouse Friend
EXTD=YEAR: 1998
EXTT0=
EXTT1=
EXTT2=
EXTT3=
PLAYORDER=
